<svg version="1.1" xmlns="http://www.w3.org/2000/svg" viewBox="0 0 2106.666666666666 809.9999999999999" width="4213.333333333332" height="1619.9999999999998">
  <!-- svg-source:excalidraw -->
  
  <defs>
    <style class="style-fonts">
      @font-face {
        font-family: "Virgil";
        src: url("https://excalidraw.com/Virgil.woff2");
      }
      @font-face {
        font-family: "Cascadia";
        src: url("https://excalidraw.com/Cascadia.woff2");
      }
    </style>
  </defs>
  <rect x="0" y="0" width="2106.666666666666" height="809.9999999999999" fill="#ffffff"></rect><g stroke-linecap="round" transform="translate(10 36.66666666666666) rotate(0 173.33333333333331 99.99999999999997)"><path d="M32 0 M32 0 C115.08 0, 198.17 0, 314.67 0 M32 0 C130.38 0, 228.77 0, 314.67 0 M314.67 0 C336 0, 346.67 10.67, 346.67 32 M314.67 0 C336 0, 346.67 10.67, 346.67 32 M346.67 32 C346.67 85.67, 346.67 139.34, 346.67 168 M346.67 32 C346.67 79.96, 346.67 127.91, 346.67 168 M346.67 168 C346.67 189.33, 336 200, 314.67 200 M346.67 168 C346.67 189.33, 336 200, 314.67 200 M314.67 200 C212.35 200, 110.04 200, 32 200 M314.67 200 C248.76 200, 182.85 200, 32 200 M32 200 C10.67 200, 0 189.33, 0 168 M32 200 C10.67 200, 0 189.33, 0 168 M0 168 C0 114.08, 0 60.16, 0 32 M0 168 C0 114.82, 0 61.65, 0 32 M0 32 C0 10.67, 10.67 0, 32 0 M0 32 C0 10.67, 10.67 0, 32 0" stroke="#000000" stroke-width="1" fill="none"></path></g><g stroke-linecap="round"><g transform="translate(361.66666666666663 126.66666666666666) rotate(0 180.83333333333331 -0.8333333333333428)"><path d="M0 0 C60.28 -0.28, 301.39 -1.39, 361.67 -1.67 M0 0 C60.28 -0.28, 301.39 -1.39, 361.67 -1.67" stroke="#000000" stroke-width="1" fill="none"></path></g><g transform="translate(361.66666666666663 126.66666666666666) rotate(0 180.83333333333331 -0.8333333333333428)"><path d="M333.52 8.72 C344.11 4.82, 354.7 0.91, 361.67 -1.67 M333.52 8.72 C342.64 5.36, 351.77 1.99, 361.67 -1.67" stroke="#000000" stroke-width="1" fill="none"></path></g><g transform="translate(361.66666666666663 126.66666666666666) rotate(0 180.83333333333331 -0.8333333333333428)"><path d="M333.43 -11.8 C344.05 -7.99, 354.67 -4.18, 361.67 -1.67 M333.43 -11.8 C342.58 -8.51, 351.73 -5.23, 361.67 -1.67" stroke="#000000" stroke-width="1" fill="none"></path></g></g><mask></mask><g transform="translate(90 116.66666666666666) rotate(0 84.05208587646484 20.700000000000003)"><text x="0" y="0" font-family="Helvetica, Segoe UI Emoji" font-size="36px" fill="#000000" text-anchor="start" style="white-space: pre;" direction="ltr" dominant-baseline="text-before-edge">navigateur</text></g><g transform="translate(418.33333333333337 73.33333333333329) rotate(0 124.03125 20.700000000000003)"><text x="0" y="0" font-family="Helvetica, Segoe UI Emoji" font-size="36px" fill="#000000" text-anchor="start" style="white-space: pre;" direction="ltr" dominant-baseline="text-before-edge">qcm.drakolab.fr</text></g><g stroke-linecap="round" transform="translate(726.6666666666665 10) rotate(0 243.33333333333337 114.99999999999999)"><path d="M32 0 M32 0 C152.47 0, 272.94 0, 454.67 0 M32 0 C153.15 0, 274.3 0, 454.67 0 M454.67 0 C476 0, 486.67 10.67, 486.67 32 M454.67 0 C476 0, 486.67 10.67, 486.67 32 M486.67 32 C486.67 67.73, 486.67 103.47, 486.67 198 M486.67 32 C486.67 81.59, 486.67 131.18, 486.67 198 M486.67 198 C486.67 219.33, 476 230, 454.67 230 M486.67 198 C486.67 219.33, 476 230, 454.67 230 M454.67 230 C341.66 230, 228.66 230, 32 230 M454.67 230 C318.29 230, 181.92 230, 32 230 M32 230 C10.67 230, 0 219.33, 0 198 M32 230 C10.67 230, 0 219.33, 0 198 M0 198 C0 155.92, 0 113.84, 0 32 M0 198 C0 137.48, 0 76.97, 0 32 M0 32 C0 10.67, 10.67 0, 32 0 M0 32 C0 10.67, 10.67 0, 32 0" stroke="#000000" stroke-width="1" fill="none"></path></g><g transform="translate(928.3333333333333 50.00000000000003) rotate(0 38.01041793823242 20.700000000000003)"><text x="0" y="0" font-family="Helvetica, Segoe UI Emoji" font-size="36px" fill="#000000" text-anchor="start" style="white-space: pre;" direction="ltr" dominant-baseline="text-before-edge">DNS</text></g><g stroke-linecap="round"><g transform="translate(1216.6666666666665 134.99999999999997) rotate(0 168.33333333333326 -1.6666666666666572)"><path d="M0 0 C56.11 -0.56, 280.56 -2.78, 336.67 -3.33 M0 0 C56.11 -0.56, 280.56 -2.78, 336.67 -3.33" stroke="#000000" stroke-width="1" fill="none"></path></g><g transform="translate(1216.6666666666665 134.99999999999997) rotate(0 168.33333333333326 -1.6666666666666572)"><path d="M308.58 7.21 C318 3.67, 327.41 0.14, 336.67 -3.33 M308.58 7.21 C317.46 3.87, 326.34 0.54, 336.67 -3.33" stroke="#000000" stroke-width="1" fill="none"></path></g><g transform="translate(1216.6666666666665 134.99999999999997) rotate(0 168.33333333333326 -1.6666666666666572)"><path d="M308.38 -13.31 C317.86 -9.97, 327.35 -6.62, 336.67 -3.33 M308.38 -13.31 C317.32 -10.16, 326.26 -7, 336.67 -3.33" stroke="#000000" stroke-width="1" fill="none"></path></g></g><mask></mask><g transform="translate(1263.3333333333333 64.99999999999997) rotate(0 105.09375 20.700000000000003)"><text x="0" y="0" font-family="Helvetica, Segoe UI Emoji" font-size="36px" fill="#000000" text-anchor="start" style="white-space: pre;" direction="ltr" dominant-baseline="text-before-edge">51.178.42.85</text></g><g stroke-linecap="round" transform="translate(1561.666666666666 23.333333333333343) rotate(0 267.5000000000001 144.16666666666663)"><path d="M32 0 M32 0 C194.11 0, 356.23 0, 503 0 M32 0 C218.26 0, 404.51 0, 503 0 M503 0 C524.33 0, 535 10.67, 535 32 M503 0 C524.33 0, 535 10.67, 535 32 M535 32 C535 98.4, 535 164.8, 535 256.33 M535 32 C535 104.37, 535 176.74, 535 256.33 M535 256.33 C535 277.67, 524.33 288.33, 503 288.33 M535 256.33 C535 277.67, 524.33 288.33, 503 288.33 M503 288.33 C351.09 288.33, 199.17 288.33, 32 288.33 M503 288.33 C317.72 288.33, 132.43 288.33, 32 288.33 M32 288.33 C10.67 288.33, 0 277.67, 0 256.33 M32 288.33 C10.67 288.33, 0 277.67, 0 256.33 M0 256.33 C0 169.2, 0 82.07, 0 32 M0 256.33 C0 206.04, 0 155.74, 0 32 M0 32 C0 10.67, 10.67 0, 32 0 M0 32 C0 10.67, 10.67 0, 32 0" stroke="#000000" stroke-width="1" fill="none"></path></g><g transform="translate(1726.6666666666667 104.99999999999997) rotate(0 104.70833587646484 20.700000000000003)"><text x="0" y="0" font-family="Helvetica, Segoe UI Emoji" font-size="36px" fill="#000000" text-anchor="start" style="white-space: pre;" direction="ltr" dominant-baseline="text-before-edge">Serveur Web</text></g><g transform="translate(1716.6666666666667 204.99999999999997) rotate(0 122.07291412353516 20.7)"><text x="0" y="0" font-family="Helvetica, Segoe UI Emoji" font-size="36px" fill="#000000" text-anchor="start" style="white-space: pre;" direction="ltr" dominant-baseline="text-before-edge">Nginx / Apache</text></g><g stroke-linecap="round" transform="translate(1574.9999999999998 566.6666666666665) rotate(0 208.33333333333337 116.66666666666669)"><path d="M32 0 M32 0 C104.49 0, 176.99 0, 384.67 0 M32 0 C168.41 0, 304.82 0, 384.67 0 M384.67 0 C406 0, 416.67 10.67, 416.67 32 M384.67 0 C406 0, 416.67 10.67, 416.67 32 M416.67 32 C416.67 75.67, 416.67 119.35, 416.67 201.33 M416.67 32 C416.67 95.6, 416.67 159.2, 416.67 201.33 M416.67 201.33 C416.67 222.67, 406 233.33, 384.67 233.33 M416.67 201.33 C416.67 222.67, 406 233.33, 384.67 233.33 M384.67 233.33 C292.88 233.33, 201.09 233.33, 32 233.33 M384.67 233.33 C246.06 233.33, 107.44 233.33, 32 233.33 M32 233.33 C10.67 233.33, 0 222.67, 0 201.33 M32 233.33 C10.67 233.33, 0 222.67, 0 201.33 M0 201.33 C0 166.98, 0 132.64, 0 32 M0 201.33 C0 156.23, 0 111.12, 0 32 M0 32 C0 10.67, 10.67 0, 32 0 M0 32 C0 10.67, 10.67 0, 32 0" stroke="#000000" stroke-width="1" fill="none"></path></g><g transform="translate(1714.9999999999998 660) rotate(0 63.01041793823242 20.69999999999999)"><text x="0" y="0" font-family="Helvetica, Segoe UI Emoji" font-size="36px" fill="#000000" text-anchor="start" style="white-space: pre;" direction="ltr" dominant-baseline="text-before-edge">Fichiers</text></g><g stroke-linecap="round"><g transform="translate(1820.9155588819233 313.33333333333303) rotate(0 -0.13669591852590202 123.33333333333351)"><path d="M0 0 C-0.05 41.11, -0.23 205.56, -0.27 246.67 M0 0 C-0.05 41.11, -0.23 205.56, -0.27 246.67" stroke="#000000" stroke-width="1" fill="none"></path></g><g transform="translate(1820.9155588819233 313.33333333333303) rotate(0 -0.13669591852590202 123.33333333333351)"><path d="M-10.5 218.46 C-7.86 225.76, -5.21 233.06, -0.27 246.67 M-10.5 218.46 C-7.53 226.65, -4.57 234.83, -0.27 246.67" stroke="#000000" stroke-width="1" fill="none"></path></g><g transform="translate(1820.9155588819233 313.33333333333303) rotate(0 -0.13669591852590202 123.33333333333351)"><path d="M10.02 218.49 C7.36 225.78, 4.69 233.07, -0.27 246.67 M10.02 218.49 C7.03 226.67, 4.04 234.84, -0.27 246.67" stroke="#000000" stroke-width="1" fill="none"></path></g></g><mask></mask><g transform="translate(1833.333333333333 406.66666666666663) rotate(0 113 20.700000000000003)"><text x="0" y="0" font-family="Helvetica, Segoe UI Emoji" font-size="36px" fill="#000000" text-anchor="start" style="white-space: pre;" direction="ltr" dominant-baseline="text-before-edge">/var/www/qcm</text></g></svg>